<svg width="32" height="32" viewBox="0 0 32 32" fill="none" xmlns="http://www.w3.org/2000/svg">
<path d="M31.5211 19.8705C29.3839 28.442 20.7014 33.6584 12.128 31.521C3.55815 29.3841 -1.65885 20.702 0.479227 12.1312C2.61543 3.5587 11.2979 -1.65814 19.8687 0.478775C28.4415 2.61569 33.6584 11.2986 31.5211 19.8705Z" fill="#F3BA2F"/>
<path fill-rule="evenodd" clip-rule="evenodd" d="M16.0004 10.642L12.2025 14.4398L12.2026 14.4397L9.99289 12.2299L16.0004 6.22241L22.0098 12.2317L19.8 14.4415L16.0004 10.642ZM8.43252 13.7901L6.22266 16.0002L8.43236 18.2096L10.6422 15.9998L8.43252 13.7901ZM12.2027 17.5608L16.0005 21.3584L19.8001 17.559L22.011 19.7676L22.0099 19.7688L16.0005 25.778L9.99304 19.7705L9.98991 19.7673L12.2027 17.5608ZM23.5685 13.7916L21.3586 16.0014L23.5684 18.2111L25.7782 16.0013L23.5685 13.7916Z" fill="white"/>
<path d="M18.242 15.9989H18.243L16.0008 13.7566L14.3435 15.4134L14.1531 15.6039L13.7605 15.9966L13.7573 15.9997L13.7605 16.0029L16.0008 18.2436L18.2431 16.0013L18.2442 16L18.2422 15.9989" fill="white"/>
</svg>
