<svg width="14" height="14" viewBox="0 0 14 14" fill="none" xmlns="http://www.w3.org/2000/svg">
<path d="M2.3335 10.5V3.5" stroke="#6F6F6F" stroke-linecap="round"/>
<path d="M11.6665 3.5V10.5" stroke="#6F6F6F" stroke-linecap="round"/>
<path d="M7.00016 5.83341C9.57749 5.83341 11.6668 4.78875 11.6668 3.50008C11.6668 2.21142 9.57749 1.16675 7.00016 1.16675C4.42283 1.16675 2.3335 2.21142 2.3335 3.50008C2.3335 4.78875 4.42283 5.83341 7.00016 5.83341Z" stroke="#6F6F6F"/>
<path d="M11.6668 7C11.6668 8.28866 9.57749 9.33333 7.00016 9.33333C4.42283 9.33333 2.3335 8.28866 2.3335 7" stroke="#6F6F6F"/>
<path d="M11.6668 10.5C11.6668 11.7887 9.57749 12.8333 7.00016 12.8333C4.42283 12.8333 2.3335 11.7887 2.3335 10.5" stroke="#6F6F6F"/>
</svg>
